{
	"asset":{
		"generator":"Khronos glTF Blender I/O v5.1.20",
		"version":"2.0"
	},
	"scene":0,
	"scenes":[
		{
			"name":"Scene",
			"nodes":[
				0,
				1
			]
		}
	],
	"nodes":[
		{
			"mesh":0,
			"name":"LaserBeam",
			"scale":[
				0.49501967430114746,
				0.49501967430114746,
				0.49501967430114746
			]
		},
		{
			"mesh":1,
			"name":"Mesh_0.012"
		}
	],
	"materials":[
		{
			"doubleSided":true,
			"name":"Material_0.011",
			"normalTexture":{
				"index":0
			},
			"pbrMetallicRoughness":{
				"baseColorTexture":{
					"index":1
				},
				"metallicRoughnessTexture":{
					"index":2
				}
			}
		},
		{
			"doubleSided":true,
			"emissiveFactor":[
				1,
				1,
				1
			],
			"emissiveTexture":{
				"index":3
			},
			"name":"Material_0.012",
			"normalTexture":{
				"index":4
			},
			"pbrMetallicRoughness":{
				"baseColorTexture":{
					"index":5
				},
				"metallicRoughnessTexture":{
					"index":6
				}
			}
		}
	],
	"meshes":[
		{
			"name":"Mesh_0.011",
			"primitives":[
				{
					"attributes":{
						"POSITION":0,
						"NORMAL":1,
						"TEXCOORD_0":2
					},
					"indices":3,
					"material":0
				}
			]
		},
		{
			"name":"Mesh_0.012",
			"primitives":[
				{
					"attributes":{
						"POSITION":4,
						"NORMAL":5,
						"TEXCOORD_0":6
					},
					"indices":7,
					"material":1
				}
			]
		}
	],
	"textures":[
		{
			"sampler":0,
			"source":0
		},
		{
			"sampler":0,
			"source":1
		},
		{
			"sampler":0,
			"source":2
		},
		{
			"sampler":0,
			"source":3
		},
		{
			"sampler":0,
			"source":4
		},
		{
			"sampler":0,
			"source":5
		},
		{
			"sampler":0,
			"source":6
		}
	],
	"images":[
		{
			"mimeType":"image/jpeg",
			"name":"Image_2",
			"uri":"Image_2.jpg"
		},
		{
			"mimeType":"image/jpeg",
			"name":"Image_0",
			"uri":"Image_0.jpg"
		},
		{
			"mimeType":"image/jpeg",
			"name":"Image_1",
			"uri":"Image_1.jpg"
		},
		{
			"mimeType":"image/jpeg",
			"name":"Image_3",
			"uri":"Image_3.jpg"
		},
		{
			"mimeType":"image/jpeg",
			"name":"Image_2",
			"uri":"Image_2-1.jpg"
		},
		{
			"mimeType":"image/jpeg",
			"name":"Image_0",
			"uri":"Image_0-1.jpg"
		},
		{
			"mimeType":"image/jpeg",
			"name":"Image_1",
			"uri":"Image_1-1.jpg"
		}
	],
	"accessors":[
		{
			"bufferView":0,
			"componentType":5126,
			"count":36658,
			"max":[
				1,
				0.0819019079208374,
				0.08486088365316391
			],
			"min":[
				-1,
				-0.0819019079208374,
				-0.08486088365316391
			],
			"type":"VEC3"
		},
		{
			"bufferView":1,
			"componentType":5126,
			"count":36658,
			"type":"VEC3"
		},
		{
			"bufferView":2,
			"componentType":5126,
			"count":36658,
			"type":"VEC2"
		},
		{
			"bufferView":3,
			"componentType":5123,
			"count":180414,
			"type":"SCALAR"
		},
		{
			"bufferView":4,
			"componentType":5126,
			"count":296397,
			"max":[
				0.9488940238952637,
				0.3964110016822815,
				0.45016199350357056
			],
			"min":[
				-0.9508399963378906,
				-0.3967379927635193,
				-0.4519740045070648
			],
			"type":"VEC3"
		},
		{
			"bufferView":5,
			"componentType":5126,
			"count":296397,
			"type":"VEC3"
		},
		{
			"bufferView":6,
			"componentType":5126,
			"count":296397,
			"type":"VEC2"
		},
		{
			"bufferView":7,
			"componentType":5125,
			"count":1362822,
			"type":"SCALAR"
		}
	],
	"bufferViews":[
		{
			"buffer":0,
			"byteLength":439896,
			"byteOffset":0,
			"target":34962
		},
		{
			"buffer":0,
			"byteLength":439896,
			"byteOffset":439896,
			"target":34962
		},
		{
			"buffer":0,
			"byteLength":293264,
			"byteOffset":879792,
			"target":34962
		},
		{
			"buffer":0,
			"byteLength":360828,
			"byteOffset":1173056,
			"target":34963
		},
		{
			"buffer":0,
			"byteLength":3556764,
			"byteOffset":1533884,
			"target":34962
		},
		{
			"buffer":0,
			"byteLength":3556764,
			"byteOffset":5090648,
			"target":34962
		},
		{
			"buffer":0,
			"byteLength":2371176,
			"byteOffset":8647412,
			"target":34962
		},
		{
			"buffer":0,
			"byteLength":5451288,
			"byteOffset":11018588,
			"target":34963
		}
	],
	"samplers":[
		{
			"magFilter":9729,
			"minFilter":9987
		}
	],
	"buffers":[
		{
			"byteLength":16469876,
			"uri":"Untitled.bin"
		}
	]
}
